{"title":"0 0 Alice In Chains - Live Facelift (1991) &amp; The Nona Tapes","uid":7445579,"size":2256864180,"categoryP":"video","categoryS":"music_videos","magnet":"?xt=urn:btih:c2b891a129596fd67188dcb6dede3efb4c1419e4&amp;dn=+0+0+Alice+In+Chains+-+Live+Facelift+%281991%29+%26amp%3B+The+Nona+Tapes&amp;tr=udp%3A%2F%2Ftracker.openbittorrent.com%3A80&amp;tr=udp%3A%2F%2Fopen.demonii.com%3A1337&amp;tr=udp%3A%2F%2Ftracker.coppersurfer.tk%3A6969&amp;tr=udp%3A%2F%2Fexodus.desync.com%3A6969","seeders":2,"leechers":4,"uploader":"qculfj","files":9,"time":1342360084,"description":"\nAlice In Chains - Live Facelift (1991) &amp; The Nona Tapes (1995) [VHSRip] [DivX]\n\n\n\n\n\nLive Facelift is a video released in 1991 by the band Alice in Chains containing live footage of songs off of their debut album, Facelift. The video has been certified gold by the RIAA with excess sales of 50,000 copies.\n\n&quot;Man in the Box&quot;\n&quot;Real Thing&quot;\n&quot;Love, Hate, Love&quot;\n&quot;Sea of Sorrow&quot;\n&quot;Bleed the Freak&quot;\n&quot;We Die Young&quot; (videoclip)\n&quot;Man in the Box&quot; (videoclip)\n&quot;Sea of Sorrow&quot; (videoclip)\n\n\n\n\n\nThe Nona Tapes is a 1995 mockumentary by the grunge band Alice in Chains. Because it is no longer for sale, original copies are considered a rarity, however, in 2006 Best Buy offered a DVD version for free for a limited time with purchases of The Essential Alice in Chains.\n\n&quot;Brush Away&quot; Excerpt 1\n&quot;Brush Away&quot; Excerpt 2\n&quot;Over Now&quot; Excerpt 1\n&quot;Over Now&quot; Excerpt 2\n&quot;Grind&quot; Excerpt\n&quot;Over Now&quot; Excerpt 3\n&quot;Head Creeps&quot; Excerpt\n&quot;Heaven Beside You&quot; Excerpt\n&quot;Grind&quot; (Music Video)\n&quot;Heaven Beside You&quot; (Outtake footage)\n\n\n\nGeneral\nFormat : MPEG-PS\nFile size : 1 024 MiB\nDuration : 32s 630ms\nOverall bit rate mode : Variable\nOverall bit rate : 263 Mbps\n\nVideo\nID : 224 (0xE0)\nFormat : MPEG Video\nFormat version : Version 2\nFormat profile : Main@Main\nFormat settings, BVOP : Yes\nFormat settings, Matrix : Custom\nFormat settings, GOP : M=3, N=15\nDuration : 32s 630ms\nBit rate mode : Variable\nBit rate : 258 Mbps\nMaximum bit rate : 9 555 Kbps\nWidth : 704 pixels\nHeight : 480 pixels\nDisplay aspect ratio : 4:3\nFrame rate : 29.970 fps\nStandard : NTSC\nColor space : YUV\nChroma subsampling : 4:2:0\nBit depth : 8 bits\nScan type : Interlaced\nScan order : Top Field First\nCompression mode : Lossy\nBits/(Pixel*Frame) : 25.451\nStream size : 1 003 MiB (98%)\nColor primaries : SMPTE 170M\nTransfer characteristics : SMPTE 170M\nMatrix coefficients : SMPTE 170M\n\nAudio\nID : 189 (0xBD)-128 (0x80)\nFormat : AC-3\nFormat/Info : Audio Coding 3\nMode extension : CM (complete main)\nFormat settings, Endianness : Big\nMuxing mode : DVD-Video\nDuration : 15s 803ms\nBit rate mode : Constant\nBit rate : 256 Kbps\nChannel(s) : 2 channels\nChannel positions : Front: L R\nSampling rate : 48.0 KHz\nBit depth : 16 bits\nCompression mode : Lossy\nDelay relative to video : -67ms\nStream size : 494 KiB (0%)\n\n","torrent":{"xt":"urn:btih:c2b891a129596fd67188dcb6dede3efb4c1419e4","amp;dn":"+0+0+Alice+In+Chains+-+Live+Facelift+%281991%29+%26amp%3B+The+Nona+Tapes","amp;tr":["udp%3A%2F%2Ftracker.openbittorrent.com%3A80","udp%3A%2F%2Fopen.demonii.com%3A1337","udp%3A%2F%2Ftracker.coppersurfer.tk%3A6969","udp%3A%2F%2Fexodus.desync.com%3A6969"],"infoHash":"c2b891a129596fd67188dcb6dede3efb4c1419e4","infoHashBuffer":{"type":"Buffer","data":[194,184,145,161,41,89,111,214,113,136,220,182,222,222,62,251,76,20,25,228]},"announce":[],"urlList":[]}}